<?xml version="1.0" encoding="iso-8859-1"?>
<!-- Generator: Adobe Illustrator 19.0.0, SVG Export Plug-In . SVG Version: 6.00 Build 0)  -->
<svg version="1.1" id="Layer_1" xmlns="http://www.w3.org/2000/svg" xmlns:xlink="http://www.w3.org/1999/xlink" x="0px" y="0px"
	 viewBox="0 0 511.999 511.999" style="enable-background:new 0 0 511.999 511.999;" xml:space="preserve">
<path style="fill:#3CC247;" d="M415.838,454.034H96.162L248.11,68.07c2.82-7.165,12.96-7.165,15.779,0L415.838,454.034z"/>
<path style="fill:#2DA85F;" d="M263.889,68.07c-2.82-7.165-12.96-7.165-15.779,0l78.564,243.818
	c19.297,59.888-22.616,122.025-85.372,126.565L98.285,448.801l-2.121,5.235h319.676L263.889,68.07z"/>
<g>
	<path style="fill:#FFDB6C;" d="M261.096,292.934l13.284,26.918l29.705,4.317c4.662,0.678,6.524,6.407,3.151,9.696l-21.494,20.949
		l5.074,29.585c0.797,4.643-4.078,8.185-8.248,5.992l-26.569-13.968l-26.569,13.968c-4.17,2.193-9.043-1.349-8.248-5.992
		l5.074-29.585l-21.495-20.952c-3.374-3.288-1.513-9.018,3.151-9.696l29.705-4.317l13.284-26.918
		C252.987,288.709,259.012,288.709,261.096,292.934z"/>
	<circle style="fill:#FFDB6C;" cx="256.005" cy="31.348" r="31.348"/>
</g>
<path style="fill:#FFB966;" d="M256,48.164c-14.811,0-27.213-10.275-30.492-24.083c-0.553,2.333-0.856,4.763-0.856,7.265
	c0,17.313,14.035,31.348,31.348,31.348c17.313,0,31.348-14.035,31.348-31.348c0-2.502-0.303-4.933-0.856-7.265
	C283.213,37.891,270.811,48.164,256,48.164z"/>
<path style="fill:#FC4C59;" d="M416.509,452.713H95.489c-8.296,0-15.022,6.568-15.022,14.864v29.4
	c0,8.296,6.725,15.022,15.022,15.022h321.02c8.296,0,15.022-6.725,15.022-15.022v-29.4
	C431.531,459.281,424.806,452.713,416.509,452.713z"/>
<path style="fill:#E83A64;" d="M416.509,452.713h-51.255c8.296,0,15.022,6.568,15.022,14.864v29.4
	c0,8.296-6.726,15.022-15.022,15.022h51.255c8.297,0,15.022-6.725,15.022-15.022v-29.4
	C431.531,459.281,424.806,452.713,416.509,452.713z"/>
<g>
	<circle style="fill:#FFDB6C;" cx="115.176" cy="483.121" r="9.907"/>
	<circle style="fill:#FFDB6C;" cx="155.003" cy="483.121" r="9.907"/>
	<circle style="fill:#FFDB6C;" cx="194.831" cy="483.121" r="9.907"/>
	<circle style="fill:#FFDB6C;" cx="234.671" cy="483.121" r="9.907"/>
	<circle style="fill:#FFDB6C;" cx="274.499" cy="483.121" r="9.907"/>
	<circle style="fill:#FFDB6C;" cx="314.326" cy="483.121" r="9.907"/>
	<circle style="fill:#FFDB6C;" cx="352.106" cy="483.121" r="9.907"/>
	<circle style="fill:#FFDB6C;" cx="391.934" cy="483.121" r="9.907"/>
</g>
<g>
</g>
<g>
</g>
<g>
</g>
<g>
</g>
<g>
</g>
<g>
</g>
<g>
</g>
<g>
</g>
<g>
</g>
<g>
</g>
<g>
</g>
<g>
</g>
<g>
</g>
<g>
</g>
<g>
</g>
</svg>
