<?xml version="1.0" standalone="no"?>
<!DOCTYPE svg PUBLIC "-//W3C//DTD SVG 20010904//EN"
 "http://www.w3.org/TR/2001/REC-SVG-20010904/DTD/svg10.dtd">
<svg version="1.0" xmlns="http://www.w3.org/2000/svg"
 width="1280.000000pt" height="1152.000000pt" viewBox="0 0 1280.000000 1152.000000"
 preserveAspectRatio="xMidYMid meet">
<metadata>
Created by potrace 1.15, written by Peter Selinger 2001-2017
</metadata>
<g transform="translate(0.000000,1152.000000) scale(0.100000,-0.100000)"
fill="#000000" stroke="none">
<path d="M4240 11514 c-14 -2 -52 -9 -85 -15 -195 -34 -455 -131 -581 -217
-116 -78 -229 -219 -293 -367 -51 -116 -88 -330 -77 -440 l6 -60 -142 -84
c-625 -368 -1137 -794 -1556 -1296 -762 -911 -1251 -2053 -1441 -3360 -179
-1233 -14 -2397 467 -3280 209 -385 495 -745 793 -1000 l86 -74 -25 -118 c-22
-105 -25 -144 -26 -358 -1 -248 7 -324 46 -480 41 -163 120 -289 213 -338 56
-30 177 -30 259 1 77 28 253 128 661 376 487 296 657 391 1000 561 618 306
1082 488 1695 665 551 159 1054 253 1625 306 236 21 811 30 1060 15 696 -41
1178 -140 2045 -421 518 -167 694 -213 980 -254 523 -75 941 -13 1255 186 514
326 713 1061 524 1936 -88 407 -276 815 -449 976 -70 64 -114 89 -185 104 -89
19 -141 -2 -253 -103 -104 -93 -156 -117 -263 -123 -208 -11 -431 100 -897
446 -125 92 -247 182 -271 199 -24 18 -77 74 -119 125 -413 509 -922 934
-1487 1241 -902 488 -2120 657 -3415 471 -330 -47 -578 -101 -800 -173 -500
-162 -844 -231 -1155 -231 -338 1 -611 82 -812 242 -115 91 -220 249 -272 408
-49 150 -65 263 -65 475 0 204 10 319 45 505 121 640 374 1151 804 1620 99
107 323 320 338 320 5 0 35 -21 68 -46 180 -138 434 -217 645 -200 161 13 419
87 579 166 179 88 298 207 385 385 65 133 91 233 97 373 8 167 -21 293 -104
452 -117 224 -333 397 -578 460 -77 20 -268 34 -325 24z"/>
</g>
</svg>
