<?xml version='1.0' encoding='iso-8859-1'?>
<svg version="1.1" xmlns="http://www.w3.org/2000/svg" viewBox="0 0 297.531 297.531" xmlns:xlink="http://www.w3.org/1999/xlink" enable-background="new 0 0 297.531 297.531">
  <g>
    <path d="m197.241,200.563c-14.998,0-22.935-6.559-29.324-11.828-5.753-4.744-9.9-8.172-19.152-8.172-9.251,0-13.403,3.428-19.155,8.172-6.389,5.27-14.339,11.828-29.337,11.828-4.279,0-7.969-0.545-11.229-1.432l-15.159,37.838c2.701,1.758 5.028,3.66 7.165,5.422 5.753,4.744 9.94,8.172 19.193,8.172 9.251,0 13.423-3.428 19.175-8.172 6.389-5.27 14.349-11.828 29.347-11.828 14.998,0 22.954,6.559 29.344,11.828 5.753,4.744 9.91,8.172 19.162,8.172 9.25,0 13.407-3.428 19.158-8.172 2.151-1.773 4.489-3.689 7.203-5.457l-15.146-37.809c-3.262,0.889-6.956,1.438-11.245,1.438z"/>
    <path d="m197.241,266.563c-14.998,0-22.935-6.559-29.324-11.828-5.753-4.744-9.9-8.172-19.152-8.172-9.251,0-13.403,3.428-19.155,8.172-6.389,5.27-14.339,11.828-29.337,11.828-14.999,0-22.951-6.559-29.341-11.828-1.091-0.898-2.124-1.516-3.146-2.307l-17.976,45.103h197.912l-17.99-45.137c-1.032,0.799-2.077,1.545-3.184,2.457-6.389,5.27-14.31,11.712-29.307,11.712z"/>
    <path d="m119.418,176.391c6.389-5.27 14.349-11.828 29.347-11.828 14.998,0 22.954,6.559 29.344,11.828 5.753,4.744 9.91,8.172 19.162,8.172 1.941,0 3.648-0.158 5.203-0.441l-44.159-110.226 17.441,9.17-5.156-30.055 21.836-21.285-30.176-4.383-13.493-27.343-13.497,27.344-30.176,4.383 21.836,21.285-5.154,30.055 17.441-9.17-44.16,110.228c1.551,0.281 3.253,0.438 5.187,0.438 9.25,0 13.422-3.428 19.174-8.172z"/>
  </g>
</svg>
