<?xml version="1.0" standalone="no"?>
<!DOCTYPE svg PUBLIC "-//W3C//DTD SVG 20010904//EN"
 "http://www.w3.org/TR/2001/REC-SVG-20010904/DTD/svg10.dtd">
<svg version="1.0" xmlns="http://www.w3.org/2000/svg"
 width="1280.000000pt" height="889.000000pt" viewBox="0 0 1280.000000 889.000000"
 preserveAspectRatio="xMidYMid meet">
<g transform="translate(0.000000,889.000000) scale(0.100000,-0.100000)"
fill="#000000" stroke="none">
<path d="M7659 8886 c-2 -2 -58 -12 -124 -21 -563 -76 -1357 -365 -2050 -744
-423 -233 -583 -340 -1489 -998 -1234 -898 -1746 -1287 -2018 -1536 -156 -142
-218 -192 -428 -342 -184 -132 -232 -168 -273 -204 -34 -31 -55 -22 -72 29 -9
27 -31 48 -101 95 -71 48 -90 65 -92 87 -3 29 -6 30 -85 43 -30 5 -45 1 -80
-23 -23 -16 -86 -55 -140 -86 -55 -32 -115 -72 -135 -89 -21 -18 -59 -43 -86
-57 -64 -33 -139 -101 -160 -144 -10 -21 -16 -60 -16 -100 0 -36 -6 -86 -12
-112 -12 -43 -11 -46 11 -63 35 -27 23 -51 -54 -104 -38 -26 -72 -53 -77 -60
-4 -6 -5 -52 -2 -102 7 -105 -3 -138 -64 -213 -63 -75 -67 -86 -64 -197 2 -91
0 -105 -25 -158 l-27 -58 26 -52 c14 -28 29 -63 33 -77 4 -14 21 -52 38 -85
17 -33 38 -87 46 -120 16 -58 19 -62 91 -112 41 -28 90 -59 108 -69 19 -9 46
-33 60 -52 100 -131 117 -140 303 -152 112 -7 117 -8 183 -48 66 -40 205 -92
244 -92 23 0 52 27 93 87 18 27 40 57 49 68 10 11 20 32 24 47 3 15 15 32 25
38 16 8 27 3 61 -25 78 -65 136 -45 288 98 53 50 126 116 160 146 123 107 181
236 191 430 5 87 10 116 21 122 29 14 415 118 480 128 261 42 1018 52 1234 17
327 -54 597 -152 844 -309 45 -29 49 -39 27 -77 -10 -17 -14 -58 -15 -135 0
-205 -40 -497 -116 -845 -108 -498 -161 -812 -185 -1100 -12 -147 -7 -388 10
-465 5 -22 12 -54 16 -72 7 -30 4 -33 -51 -68 -80 -50 -103 -73 -125 -120 -24
-52 -24 -92 1 -157 17 -46 19 -67 14 -158 -8 -126 5 -202 46 -287 50 -102 157
-179 287 -206 55 -12 55 -11 76 18 65 89 130 141 162 129 23 -9 43 -53 51
-113 6 -46 9 -51 28 -45 25 7 134 70 234 136 125 81 182 73 182 -26 0 -24 2
-45 5 -48 3 -2 29 19 58 47 30 29 114 92 188 140 233 154 286 203 310 289 14
49 33 48 210 -15 242 -86 319 -73 434 72 97 120 165 147 200 78 12 -22 33
-142 35 -196 0 -1 21 -15 48 -30 40 -24 58 -28 122 -28 86 1 127 16 280 104
110 63 229 121 247 121 8 0 13 13 13 33 0 74 51 104 196 117 57 5 109 12 114
15 20 12 9 43 -30 87 l-39 45 22 20 c97 86 318 147 516 141 116 -3 117 -3 174
-41 119 -79 258 -119 412 -120 200 0 299 67 344 233 22 82 56 130 125 177 62
42 133 63 215 63 84 0 127 -12 188 -53 l48 -32 69 35 c99 51 193 53 427 10
197 -36 307 -38 372 -6 43 21 44 28 17 81 -48 93 -1 187 120 243 101 47 211
33 273 -33 l23 -26 40 29 c21 16 84 70 139 121 108 100 161 131 220 131 41 0
118 -38 134 -68 9 -15 16 -15 98 12 80 26 437 156 562 205 l51 21 21 -21 c50
-50 91 -69 146 -69 93 0 168 51 217 147 21 42 21 152 0 201 -30 69 -34 91 -18
106 12 12 22 12 71 0 74 -17 103 -17 127 1 19 14 19 17 4 63 -9 26 -19 88 -22
138 -13 216 -84 408 -182 494 -68 59 -110 74 -211 75 -50 0 -94 2 -97 5 -7 7
-54 229 -72 342 -34 213 -137 434 -421 908 -241 404 -273 461 -431 775 -334
665 -690 1211 -1122 1725 -373 443 -911 1006 -1195 1251 -219 188 -339 268
-650 431 -289 151 -336 169 -541 207 -58 11 -176 15 -185 7z"/>
</g>
</svg>
