<?xml version="1.0" standalone="no"?>
<!DOCTYPE svg PUBLIC "-//W3C//DTD SVG 20010904//EN"
 "http://www.w3.org/TR/2001/REC-SVG-20010904/DTD/svg10.dtd">
<svg version="1.0" xmlns="http://www.w3.org/2000/svg"
 width="1280.000000pt" height="1226.000000pt" viewBox="0 0 1280.000000 1226.000000"
 preserveAspectRatio="xMidYMid meet">
<metadata>
Created by potrace 1.15, written by Peter Selinger 2001-2017
</metadata>
<g transform="translate(0.000000,1226.000000) scale(0.100000,-0.100000)"
fill="#000000" stroke="none">
<path d="M5090 12245 c-433 -22 -756 -49 -1165 -101 -819 -103 -1495 -258
-1495 -344 0 -16 -7 -20 -37 -20 -21 0 -55 5 -76 11 -31 8 -37 14 -37 37 0 52
-45 91 -119 106 -55 10 -106 -10 -155 -60 -63 -66 -81 -60 -123 40 -49 119
-89 152 -173 144 -73 -7 -104 -36 -156 -146 -45 -94 -69 -132 -85 -132 -4 0
-19 31 -33 69 -50 128 -124 157 -231 91 -30 -19 -75 -89 -75 -118 0 -28 -64
-46 -170 -46 -126 -1 -185 -24 -227 -87 -24 -37 -25 -45 -20 -126 l5 -88 -21
29 c-11 16 -35 35 -54 42 -28 12 -38 12 -66 0 -67 -28 -109 -104 -126 -225
-11 -85 -34 -123 -77 -132 -46 -9 -71 -30 -99 -82 -32 -58 -35 -125 -10 -210
22 -78 17 -91 -29 -72 -99 42 -176 -11 -176 -120 0 -46 12 -68 66 -127 24 -26
44 -52 44 -58 0 -22 -24 -56 -86 -122 -68 -73 -90 -125 -80 -186 12 -74 55
-106 157 -119 87 -11 89 -29 9 -83 -85 -58 -110 -124 -76 -203 25 -59 90 -97
168 -97 18 0 33 -8 43 -24 15 -23 15 -27 -4 -65 -36 -69 -22 -132 42 -188 43
-37 101 -49 167 -34 65 15 120 14 126 -3 3 -8 -6 -31 -20 -53 -61 -92 -55
-145 21 -213 43 -37 80 -53 188 -80 60 -15 102 -45 124 -89 37 -71 126 -131
196 -131 18 0 47 16 96 51 32 24 62 3 100 -68 41 -79 88 -113 157 -113 64 0
100 23 128 83 13 29 24 58 24 65 0 6 12 12 27 12 21 0 44 -19 102 -80 101
-106 163 -130 246 -96 53 22 66 59 64 182 -1 58 1 108 4 110 3 3 21 -24 41
-59 57 -101 115 -126 196 -85 55 28 85 72 100 144 9 44 17 57 41 69 26 14 33
14 65 0 48 -20 77 -19 123 5 85 43 115 111 82 186 -12 25 -21 48 -21 50 0 16
65 38 149 49 114 16 145 29 189 79 58 67 51 132 -24 217 -24 27 -44 56 -44 63
0 15 32 46 46 46 34 0 117 35 142 60 l29 29 7 -82 c16 -204 27 -573 21 -682
-13 -242 -42 -365 -168 -715 -87 -243 -108 -307 -176 -545 -158 -554 -295
-1284 -276 -1480 24 -250 206 -521 467 -691 181 -118 232 -181 231 -290 0 -45
-8 -78 -27 -120 -50 -108 -82 -149 -144 -182 -88 -46 -128 -54 -193 -38 -47
13 -58 13 -84 0 -45 -21 -76 -74 -84 -143 -4 -34 -10 -64 -14 -67 -4 -4 -7 -2
-7 4 0 18 -61 52 -93 52 -63 0 -127 -59 -151 -139 -22 -76 -40 -104 -136 -212
-104 -118 -139 -183 -147 -269 -5 -51 -9 -60 -22 -54 -88 35 -146 14 -171 -62
-10 -30 -8 -40 24 -97 61 -108 43 -178 -78 -314 -35 -40 -67 -81 -71 -91 -8
-27 22 -98 52 -122 13 -10 53 -28 89 -40 68 -23 79 -34 41 -44 -34 -8 -112
-80 -131 -120 -45 -94 14 -206 109 -206 45 0 85 -37 85 -78 0 -15 -11 -43 -25
-62 -30 -41 -31 -68 -5 -120 35 -69 105 -99 234 -101 28 0 59 -4 69 -8 16 -6
16 -9 -8 -31 -59 -55 -73 -143 -33 -207 28 -47 122 -115 197 -143 56 -21 65
-29 115 -100 63 -90 102 -125 156 -141 35 -11 44 -9 94 16 67 34 73 30 116
-61 17 -35 45 -77 62 -95 28 -27 37 -30 71 -26 22 3 61 19 88 36 166 105 147
96 170 75 12 -10 34 -44 50 -75 38 -77 118 -139 177 -139 58 0 100 51 122 150
23 103 31 130 39 130 4 0 18 -23 32 -52 45 -97 93 -135 156 -123 48 9 113 69
113 105 0 68 98 128 191 117 47 -6 57 -12 103 -61 95 -102 163 -89 263 49 l21
30 85 -82 c178 -174 306 -176 388 -7 l22 47 20 -27 c21 -30 66 -56 95 -56 10
0 24 -11 31 -24 36 -66 146 -60 263 15 l48 31 68 -21 c140 -43 217 -35 373 37
96 45 97 45 98 -48 1 -80 17 -124 56 -159 41 -35 91 -47 137 -32 18 6 73 47
123 91 114 102 119 103 116 18 -3 -79 18 -121 76 -149 36 -17 54 -20 94 -15
62 8 139 38 200 77 25 16 49 29 52 29 15 0 53 -52 100 -140 63 -119 104 -160
156 -160 61 0 102 37 158 144 29 55 32 58 33 31 1 -105 75 -195 160 -195 44 0
104 34 141 80 45 55 85 52 175 -16 17 -13 43 -24 57 -24 22 0 27 -5 27 -25 0
-58 43 -107 107 -124 50 -14 95 1 149 49 19 16 38 30 43 30 16 0 29 -26 61
-125 35 -110 60 -155 102 -179 28 -17 107 -24 127 -12 6 4 26 -8 44 -28 47
-49 92 -55 173 -23 l64 25 4 -21 c3 -12 8 -44 11 -72 3 -27 15 -78 26 -112 66
-202 214 -229 311 -56 16 29 34 55 38 58 17 10 23 -67 10 -121 -11 -45 -11
-58 1 -80 41 -78 134 -91 240 -32 l66 36 73 -39 c103 -54 114 -66 111 -129 -2
-59 21 -100 69 -125 41 -21 81 -19 147 10 77 35 82 28 92 -117 11 -161 44
-215 141 -233 28 -5 41 -2 63 15 15 12 27 28 27 36 0 34 117 131 136 112 2 -3
-2 -25 -10 -49 -47 -134 24 -219 176 -211 14 1 47 18 72 37 26 19 57 35 70 35
29 0 72 -33 91 -70 15 -30 86 -70 124 -70 47 0 90 31 127 91 25 42 42 59 57
59 11 0 68 -28 125 -62 88 -52 112 -62 152 -62 88 0 156 67 144 141 -8 52 11
123 34 123 9 0 39 -11 66 -25 83 -42 206 -27 258 31 27 31 48 89 48 134 0 56
29 84 78 75 20 -4 49 -13 64 -21 34 -18 72 -18 106 0 76 39 101 114 62 188
-21 40 -21 43 -4 55 10 8 49 22 85 33 126 38 154 102 124 279 -9 55 -14 105
-10 111 3 5 31 10 62 10 64 0 113 20 148 61 50 61 41 166 -17 197 -63 35 -81
56 -81 98 0 22 10 58 22 81 28 57 28 131 0 167 -12 15 -46 41 -75 58 -30 16
-54 36 -54 43 0 7 25 41 56 75 62 70 74 94 74 149 0 45 -23 82 -104 163 -31
32 -56 65 -56 74 0 9 9 28 21 42 25 32 19 79 -14 129 -29 44 -78 65 -162 72
-38 4 -75 10 -82 14 -8 5 -1 28 25 80 37 72 37 72 37 197 0 69 -6 157 -14 195
-195 1056 -321 1491 -600 2069 -265 551 -634 1147 -1410 2276 -1392 2027
-1939 2723 -3057 3890 -467 487 -661 674 -769 745 -181 117 -317 172 -500 201
-139 22 -571 26 -915 9z m-2450 -777 c0 -5 -4 -8 -8 -8 -15 0 -32 24 -32 45 0
19 2 18 20 -5 11 -14 20 -28 20 -32z m550 -1360 c-1 -49 -2 -51 -15 -34 -15
20 -20 67 -8 79 16 17 23 3 23 -45z m7983 -6840 c18 -12 34 -23 37 -25 8 -7
-24 -23 -46 -23 -23 0 -51 41 -40 59 10 15 13 14 49 -11z"/>
</g>
</svg>
